<?xml version="1.0" encoding="UTF-8" standalone="no"?>
<!-- Created with Inkscape (http://www.inkscape.org/) -->

<svg
   width="182.72574mm"
   height="82.1101mm"
   viewBox="0 0 182.72574 82.1101"
   version="1.1"
   id="svg1"
   xmlns:xlink="http://www.w3.org/1999/xlink"
   xmlns="http://www.w3.org/2000/svg"
   xmlns:svg="http://www.w3.org/2000/svg">
  <defs
     id="defs1">
    <linearGradient
       id="linearGradient1">
      <stop
         style="stop-color:#0004ff;stop-opacity:1;"
         offset="0"
         id="stop2" />
      <stop
         style="stop-color:#ff0000;stop-opacity:1;"
         offset="1"
         id="stop1" />
    </linearGradient>
    <linearGradient
       xlink:href="#linearGradient1"
       id="linearGradient2"
       x1="1.856635"
       y1="56.187061"
       x2="143.10863"
       y2="56.187061"
       gradientUnits="userSpaceOnUse" />
  </defs>
  <g
     id="layer1"
     transform="translate(-0.30871181,-10.807477)">
    <g
       id="g15"
       style="stroke-width:0.5;stroke-dasharray:none">
      <path
         style="display:inline;fill:none;fill-opacity:0.156177;fill-rule:nonzero;stroke:url(#linearGradient2);stroke-width:0.5;stroke-linecap:round;stroke-linejoin:round;stroke-dasharray:none;stroke-opacity:1"
         d="m 141.78577,92.667577 c 1.10149,-0.01993 2.07932,-0.469833 2.9483,-1.275574 0.8683,-0.805102 1.62651,-1.964993 2.27699,-3.395718 1.30436,-2.868958 2.16562,-6.798228 2.63494,-11.17144 0.46988,-4.378422 0.54345,-9.15316 0.3258,-13.771141 -0.21642,-4.591973 -0.72265,-9.047391 -1.41194,-12.643993 -0.0277,-0.144353 -0.0557,-0.288709 -0.0841,-0.433036 0,0 0,-10e-7 0,-10e-7 -0.96519,-4.907054 -2.3567,-9.772362 -5.21708,-13.418896 -1.47312,-1.878001 -3.33508,-3.432785 -5.73297,-4.513043 -2.3989,-1.080712 -5.32925,-1.68499 -8.9521,-1.67254 -2.75224,0.0095 -5.19436,0.65841 -7.32786,1.774512 -1.21668,0.636487 -2.33285,1.424839 -3.34857,2.332901 m 20.53624,-4.197138 c -0.0383,-0.01835 -0.0769,-0.03657 -0.11553,-0.05465 -2.30513,-1.077767 -5.16801,-1.66521 -8.74892,-1.602258 -2.72243,0.04786 -5.15993,0.744747 -7.2962,1.915031 -2.13671,1.170522 -3.9743,2.815419 -5.50632,4.76272 -3.06035,3.88991 -4.91357,9.004439 -5.44465,13.940993 -0.25345,2.355804 -0.2062,4.673367 0.15463,6.808651 0.0177,0.104711 0.0362,0.208996 0.0556,0.312839 0.41486,2.220722 1.21938,4.239752 2.39811,5.88486 0.0412,0.05745 0.0828,0.114448 0.12486,0.170982 m -2.93544,-8.296986 c 0.14137,1.034565 0.33921,2.042949 0.59454,3.012741 0.6041,2.29451 1.53001,4.373069 2.79152,6.072881 1.26144,1.699721 2.85845,3.020485 4.80224,3.797952 1.94404,0.777571 4.23382,1.011384 6.88032,0.537489 5.29133,-0.94749 9.09269,-3.798711 11.60308,-7.506775 1.64966,-2.436689 2.74327,-5.245154 3.33716,-8.1283 0.31002,-1.505038 0.46631,-3.04567 0.4767,-4.580859 0.0303,-4.476489 -1.18103,-8.903103 -3.42199,-12.223896 -1.12044,-1.660343 -2.4978,-3.04353 -4.10921,-4.021059 -1.61202,-0.977902 -3.4573,-1.54966 -5.5225,-1.594212 -5.4923,-0.118482 -11.06836,0.59258 -16.76532,2.525022 m 20.68238,-3.179921 c -0.59439,-0.08071 -1.20902,-0.114178 -1.8435,-0.09649 -8.58629,0.239434 -17.23168,2.566986 -26.49295,8.683289 -4.409181,2.911904 -8.983881,6.694931 -13.89603,11.633227 -5.469147,5.49826 -10.526437,11.449889 -15.297206,18.108426 -1.381394,1.015278 -2.638008,1.979618 -3.792984,2.909353 M 84.434474,49.563052 c -3.933963,4.142909 -7.814362,8.942869 -11.656398,14.507861 -7.673317,6.124072 -12.074054,11.285241 -14.2984,15.168489 -1.00981,1.762919 -1.590659,3.293418 -1.830817,4.574649 -0.02688,0.14341 -0.04971,0.28382 -0.06857,0.421214 -0.187648,1.367 0.01834,2.430646 0.523081,3.170808 0.504412,0.739685 1.305101,1.151922 2.291135,1.220259 0.984709,0.06824 2.150725,-0.207499 3.367193,-0.840358 2.435937,-1.267278 5.058971,-3.956628 6.830296,-8.168192 4.048023,-9.624726 5.5694,-18.038605 6.155363,-23.430891 0.199841,-1.83903 0.270152,-3.425893 0.277068,-4.713304 m -3.306723,26.278856 c 6.646867,-17.1808 4.528204,-29.088829 4.523091,-29.120384 -7e-6,-4.3e-5 -10e-6,-6.5e-5 -1.1e-5,-6.7e-5 -10e-7,-10e-7 -3e-6,1.2e-5 -8e-6,3.8e-5 -9.5e-5,4.93e-4 -0.0011,0.0057 -0.003,0.01552 -0.0019,0.0098 -0.0047,0.02418 -0.0085,0.04298 -0.0075,0.03759 -0.01859,0.09293 -0.03334,0.164675 -0.02949,0.143465 -0.07359,0.353002 -0.132239,0.618295 -0.117406,0.531105 -0.292928,1.284882 -0.527252,2.184164 -0.469397,1.801435 -1.170251,4.168919 -2.104686,6.495636 -0.766534,1.908648 -1.689306,3.787006 -2.764059,5.286244 -0.23321,0.32532 -0.473504,0.63409 -0.720908,0.922421 -0.693903,0.808693 -1.444627,1.45766 -2.253533,1.860012 -0.8092,0.402499 -1.677239,0.558635 -2.608072,0.380656 -1.272005,-0.243212 -2.175586,-0.632908 -2.801068,-1.164986 -0.624974,-0.531645 -0.970726,-1.204732 -1.123153,-2.007703 -0.152345,-0.802543 -0.111247,-1.734471 0.0395,-2.777415 0.150803,-1.043317 0.411184,-2.196836 0.697763,-3.444416 0.567931,-2.472403 1.239825,-5.316832 1.355125,-8.397447 m -1.206062,17.179085 c -0.09422,-0.250467 -0.161541,-0.516948 -0.205429,-0.799067 -0.12615,-0.810906 -0.05833,-1.749006 0.118147,-2.797806 0.176339,-1.047958 0.46108,-2.205552 0.76737,-3.450429 0.6136,-2.493896 1.31095,-5.329115 1.418367,-8.378613 0.107243,-3.044551 -0.374481,-6.304273 -2.119653,-9.618914 -1.743675,-3.311798 -3.833205,-5.753911 -6.104277,-7.607 C 54.647038,31.4818 52.182777,30.209734 49.666815,29.228779 49.1345,29.021233 48.600015,28.826769 48.064658,28.64257 44.09148,27.275535 40.097778,26.395337 36.599015,24.934059 m 10.069035,0.871198 c -4.193439,-1.590499 -8.550317,-2.568436 -12.271017,-4.438143 -0.710232,-0.356902 -1.50012,-0.453365 -2.308076,-0.357812 -0.807848,0.09554 -1.634519,0.38316 -2.417813,0.795189 -1.566184,0.823848 -2.963019,2.146931 -3.689044,3.439897 -0.363297,0.646989 -0.558933,1.286771 -0.525559,1.853322 0.03334,0.566071 0.295706,1.058584 0.845712,1.403207 0.549912,0.344563 1.387019,0.540857 2.569811,0.51414 1.182975,-0.02672 2.711059,-0.27637 4.646079,-0.823832 4.02685,-1.139289 7.746216,-0.811778 10.831777,0.592008 2.610004,1.187429 4.747201,3.186461 6.198422,5.741411 1.658696,2.920218 2.425796,6.573967 1.981715,10.594974 m -3.081281,-8.625554 c 0.09083,0.147007 0.179377,0.295885 0.265606,0.446584 3.168708,5.537821 3.204584,13.602275 -2.00373,21.384447 -2.42453,3.622691 -6.944405,5.724858 -11.678111,6.482658 -2.378553,0.380773 -4.799763,0.422496 -7.044433,0.170629 -2.219399,-0.249031 -4.293694,-0.658776 -5.95582,-1.261148 -6.725549,-2.437407 -13.6783905,-0.576731 -17.7850856,2.97507 -2.0680352,1.788603 -3.4402446,4.016585 -3.786133,6.461163 -0.2983757,2.10878 0.16268,4.390591 1.571404,6.756245 M 17.426917,65.72878 c -4.493357,-0.171786 -8.6044147,1.137463 -11.3888292,3.292634 -2.0076113,1.553915 -3.3244944,3.545404 -3.6162214,5.750315 -0.2918458,2.205808 0.4422974,4.619486 2.5100999,7.029317 2.8536787,3.325696 7.0242147,5.794844 11.6326067,7.272127 1.428326,0.457869 2.899778,0.820847 4.38949,1.084988 3.320579,0.588774 6.840489,0.688767 10.250946,0.268161 4.941647,-0.609445 9.635969,-2.30923 13.134068,-5.190618 1.749429,-1.441008 3.200151,-3.177209 4.242643,-5.224727 0.318728,-0.626 0.599333,-1.281159 0.838698,-1.965976 M 31.532969,90.140913 c 0.262705,-0.02065 0.524699,-0.04437 0.78585,-0.07116 4.921909,-0.504885 9.542723,-2.100545 12.969361,-4.864518 1.713789,-1.382366 3.12815,-3.056023 4.137567,-5.032519 1.009383,-1.976428 1.612815,-4.253706 1.708239,-6.84126 m 90.389644,15.875641 c 1.05617,0.02905 1.99904,-0.382722 2.82993,-1.147663 0.83142,-0.765429 1.55242,-1.885546 2.1701,-3.28182 1.23483,-2.791317 2.05892,-6.693155 2.52476,-11.065761 0.46618,-4.375774 0.57193,-9.208237 0.36802,-13.847741 -0.20435,-4.649686 -0.71674,-9.048664 -1.4634,-12.62784 -0.0297,-0.142603 -0.0599,-0.285135 -0.0905,-0.427566 0,0 0,0 0,0 -1.04036,-4.840936 -2.41082,-9.601688 -5.19308,-13.096369 -1.43217,-1.798897 -3.24102,-3.265759 -5.5615,-4.226355 -2.1652,-0.896321 -4.78273,-1.353726 -7.9433,-1.210519 m 15.22971,12.99787 c -0.76334,-2.086782 -1.73511,-4.031804 -3.02045,-5.717002 -1.41817,-1.859365 -3.21423,-3.39734 -5.52459,-4.464849 -2.30981,-1.067261 -5.12561,-1.660025 -8.56244,-1.637523 -2.609,0.01708 -4.89965,0.671201 -6.86056,1.792032 -1.96091,1.120832 -3.59128,2.707869 -4.87897,4.590375 -1.43038,2.091092 -2.43659,4.543954 -3.01312,7.134249 -0.46137,2.072849 -0.72625,4.269325 -0.779,6.453994 -0.0593,2.456878 0.14931,4.908761 0.65623,7.170826 0.50752,2.264729 1.31317,4.336425 2.44736,6.047735 0.54946,0.829033 1.17481,1.571648 1.87821,2.209587 m -5.00763,-16.455363 c -0.0243,0.273081 -0.0447,0.546183 -0.0611,0.819086 -0.15037,2.504162 0.0346,4.992227 0.55921,7.290621 0.52469,2.298822 1.38878,4.406688 2.59721,6.152527 1.20929,1.747086 2.7597,3.126907 4.65921,3.985671 1.90014,0.859046 4.14039,1.192816 6.72704,0.868045 5.16957,-0.649073 8.84248,-3.173308 11.16129,-6.513941 0.66195,-0.953645 1.21315,-1.973564 1.65684,-3.035394 0,0 0,0 0,0 1.1095,-2.655233 1.61273,-5.772985 1.55477,-8.944181 -0.0812,-4.440477 -1.26228,-8.976401 -3.43154,-12.43465 -1.0852,-1.730029 -2.41434,-3.18636 -3.9755,-4.241142 -0.87669,-0.592325 -1.82527,-1.057185 -2.84333,-1.373522 m 9.32815,7.03058 c -0.61416,-2.199473 -1.49133,-4.209307 -2.61588,-5.903937 -1.10035,-1.658166 -2.43818,-3.015314 -3.99663,-3.950714 -1.55768,-0.93494 -3.33809,-1.449461 -5.31441,-1.41354 -8.25953,0.150118 -16.41026,2.608582 -24.94566,8.571441 -0.24448,0.170789 -0.48922,0.344407 -0.73428,0.520883 -2.325808,1.674956 -4.738847,3.608539 -7.241191,5.828761 m 8.903971,-7.530927 c -0.65002,0.376999 -1.30309,0.77645 -1.95915,1.199083 -8.535111,5.498348 -18.161476,15.371972 -27.633026,31.255302 -0.743075,0.716041 -1.454841,1.422204 -2.136084,2.117529 0,0 -10e-7,10e-7 -10e-7,10e-7 -6.679688,6.817763 -10.237446,10.502786 -12.76109,14.445753 -1.252804,1.957394 -1.949942,3.590555 -2.218457,4.933596 -0.101116,0.505751 -0.140708,0.967976 -0.125481,1.385932 M 69.213687,68.192959 c -4.665996,4.425591 -7.747235,8.114094 -9.666829,11.225192 -1.281936,2.077642 -2.008932,3.844271 -2.30139,5.290034 -0.29238,1.445373 -0.149206,2.563878 0.302658,3.349725 0.451572,0.785341 1.211662,1.23871 2.149161,1.35598 0.93767,0.11729 2.053561,-0.101608 3.219408,-0.665425 2.336978,-1.130191 4.859405,-3.637841 6.588231,-7.571831 0.684057,-1.556592 1.295428,-3.056374 1.841234,-4.493119 1.393663,-3.668594 2.405386,-7.292318 3.118553,-10.579351 m -5.972512,17.772244 c 0.327048,-0.618506 0.637769,-1.281152 0.927753,-1.988773 8.051194,-19.646636 6.640856,-33.224342 6.636538,-33.25761 -5e-6,-4.1e-5 -8e-6,-6.2e-5 -7e-6,-6.3e-5 1e-6,0 -10e-7,1.3e-5 -5e-6,4e-5 -7.6e-5,5.07e-4 -8.81e-4,0.0059 -0.0024,0.01597 -0.0015,0.01008 -0.0038,0.02488 -0.0068,0.04423 -0.006,0.0387 -0.01499,0.0956 -0.02695,0.169473 -0.02393,0.147726 -0.05984,0.36333 -0.108074,0.636725 -0.09641,0.546515 -0.242247,1.325242 -0.44004,2.254464 -0.353321,1.659878 -0.873168,3.803751 -1.577516,5.975938 -0.08439,0.260257 -0.171498,0.52089 -0.261352,0.781137 -0.840175,2.433421 -1.919728,4.829628 -3.250098,6.545255 -0.664798,0.857315 -1.39166,1.543728 -2.180898,1.977813 -0.789202,0.434067 -1.640774,0.615806 -2.554406,0.463371 -1.24826,-0.208266 -2.137822,-0.57816 -2.750601,-1.093627 -0.61283,-0.51551 -0.948598,-1.176386 -1.090151,-1.96668 -0.141545,-0.790252 -0.08884,-1.709525 0.07454,-2.741177 0.105393,-0.665506 0.256842,-1.377781 0.431868,-2.132118 m 13.347433,-1.520053 c -0.04366,0.117563 -0.0878,0.235079 -0.132421,0.352477 -0.942879,2.480571 -2.101218,4.909402 -3.483384,6.638323 -0.69145,0.86492 -1.439795,1.556028 -2.247167,1.992938 -0.807342,0.436893 -1.674402,0.620002 -2.603872,0.46774 -1.26969,-0.207996 -2.174033,-0.580235 -2.79842,-1.097691 -0.624557,-0.517597 -0.970336,-1.181459 -1.122898,-1.975333 -0.15256,-0.793874 -0.11198,-1.718408 0.03748,-2.756837 0.14949,-1.038616 0.407868,-2.190978 0.691042,-3.4409 0.565845,-2.497621 1.232071,-5.389658 1.317346,-8.524355 0.08522,-3.132654 -0.409001,-6.525116 -2.181287,-10.017387 -0.33923,-0.668448 -0.691372,-1.304433 -1.055416,-1.909969 -1.539922,-2.561445 -3.259756,-4.55954 -5.102702,-6.16224 -2.278063,-1.981096 -4.742719,-3.356272 -7.267035,-4.422326 -5.048633,-2.132108 -10.337173,-3.025901 -14.7813,-5.028915 -0.741866,-0.334367 -1.56134,-0.407336 -2.402283,-0.284748 -0.840593,0.122536 -1.70175,0.440468 -2.522207,0.886049 -1.0173,0.552485 -1.972521,1.301646 -2.74177,2.115289 m 18.44012,1.588425 c -4.226343,-1.484538 -8.517654,-2.439452 -12.192699,-4.228184 -0.724466,-0.352614 -1.527218,-0.444832 -2.34885,-0.344532 -0.821374,0.10027 -1.661913,0.393063 -2.459339,0.810713 -1.594324,0.835023 -3.020239,2.17105 -3.770963,3.4754 -0.375743,0.652838 -0.582342,1.297475 -0.559045,1.868855 0.02328,0.570947 0.276745,1.06755 0.814383,1.417832 0.537698,0.35032 1.358976,0.553912 2.516913,0.538517 1.157864,-0.01539 2.652573,-0.249859 4.533569,-0.774806 4.079552,-1.138517 7.804961,-0.68108 10.780336,0.935792 2.293793,1.246488 4.216276,3.209376 5.573582,5.681324 2.547596,4.639727 3.110018,11.070052 0.509809,18.009719 M 48.857913,34.366272 c 0.607231,0.752445 1.152256,1.566231 1.628197,2.433827 3.205896,5.844044 3.258302,14.075103 -1.830377,22.394324 -2.36628,3.868512 -6.839837,6.325245 -11.489452,7.592356 -1.561833,0.42563 -3.147273,0.718119 -4.683486,0.88426 -3.043098,0.329111 -5.957004,0.102275 -8.152465,-0.602033 -6.662625,-2.137383 -13.434151,-0.905474 -17.4038128,2.049312 -1.9852774,1.477726 -3.2735073,3.384469 -3.5224306,5.496475 -0.2483699,2.107311 0.5407862,4.421075 2.7271183,6.661077 0.9663808,0.990102 2.0762537,1.888041 3.3043165,2.690726 1.1025946,0.720678 2.2909176,1.378087 3.5442776,1.969608 M 13.34708,66.142219 C 10.798454,66.695045 8.5284603,67.746424 6.7818284,69.13857 4.7959297,70.721422 3.49048,72.740423 3.205614,74.977012 c -0.2852481,2.23959 0.4517276,4.686335 2.5143613,7.163025 2.8450688,3.416192 6.9935517,6.014139 11.5679457,7.690498 2.831993,1.037828 5.836069,1.725702 8.813841,2.034397 1.837062,0.190442 3.700708,0.191648 5.539843,0.0048 1.255223,-0.127492 2.498023,-0.342479 3.710997,-0.644116 M 17.808998,87.665839 c 4.80403,1.240669 10.096474,1.654554 15.070194,1.107804 5.121691,-0.563016 9.907211,-2.143917 13.516548,-4.894869 1.804341,-1.375227 3.309794,-3.038702 4.423521,-5.009607 1.114188,-1.971718 1.832358,-4.243262 2.077046,-6.841154 m 88.252723,19.213752 c 1.09895,-0.02321 2.07227,-0.474868 2.93298,-1.281514 0.85986,-0.805846 1.60547,-1.965253 2.23479,-3.392514 1.26308,-2.864612 2.04498,-6.769331 2.37212,-11.101443 0.32831,-4.347594 0.19501,-9.032143 -0.28281,-13.580728 -0.47531,-4.524735 -1.2867,-8.858991 -2.26485,-12.384457 -0.0391,-0.140979 -0.0786,-0.281945 -0.11859,-0.422871 0,0 0,-10e-7 0,-10e-7 -1.35709,-4.786378 -2.81915,-9.595592 -5.58488,-13.185414 -1.42676,-1.85189 -3.19863,-3.380729 -5.46414,-4.434088 -0.48258,-0.224377 -0.98718,-0.426969 -1.51499,-0.606246 m 12.89619,15.746367 c -0.0117,-0.0614 -0.0235,-0.122556 -0.0353,-0.183467 -1.00897,-5.204047 -2.37681,-10.259663 -5.26672,-13.955984 -1.44545,-1.84879 -3.27241,-3.359012 -5.62038,-4.372304 -2.34906,-1.013761 -5.21507,-1.528275 -8.74202,-1.384902 -2.67875,0.108893 -5.04863,0.855113 -7.10552,2.067881 -1.99696,1.177431 -3.69776,2.793775 -5.10399,4.692626 0,0 0,0 0,0 -0.0426,0.05753 -0.0849,0.115324 -0.12693,0.173387 -1.47884,2.04348 -2.59563,4.41516 -3.34299,6.931405 m 9.04915,-10.995716 c -0.19709,0.09904 -0.3914,0.202805 -0.5829,0.311131 -2.00867,1.136232 -3.70901,2.774218 -5.08675,4.740479 -2.75703,3.934723 -4.22463,9.187826 -4.32532,14.390665 -0.0503,2.599299 0.24102,5.179704 0.88051,7.564434 0.63945,2.384558 1.62619,4.570735 2.96611,6.384878 1.34054,1.814978 3.03263,3.25621 5.09756,4.169122 0.95095,0.420419 1.98145,0.729175 3.09591,0.912419 1.30564,0.21468 2.70928,0.241601 4.20615,0.05188 5.51989,-0.699613 9.38882,-3.578245 11.83881,-7.346934 2.46428,-3.790656 3.53909,-8.541775 3.47943,-13.159248 -6e-4,-0.04631 -0.001,-0.09262 -0.002,-0.1389 m -5.06188,11.490195 c 0.0811,-0.117299 0.16086,-0.235502 0.23933,-0.354577 2.46048,-3.733538 3.64171,-8.327581 3.70287,-12.753982 0.0612,-4.428638 -0.99799,-8.695778 -3.03821,-11.807996 -1.01999,-1.555939 -2.28601,-2.824334 -3.77589,-3.675727 -1.48868,-0.850708 -3.20399,-1.286101 -5.10813,-1.162819 -2.38444,0.154379 -4.76757,0.516601 -7.14948,1.128892 -5.54538,1.425492 -11.52009,3.810143 -17.95722,7.751878 -4.713074,2.886021 -9.900289,6.7544 -15.112973,11.738026 M 107.3672,34.615336 c -1.37835,0.734349 -2.76841,1.540557 -4.17387,2.423967 -9.264796,5.823461 -18.661996,14.596667 -30.524473,28.382569 -0.143727,0.09678 -0.286669,0.193317 -0.428833,0.289622 -8.556071,5.79608 -13.135695,11.473759 -15.280545,15.343942 -1.145338,2.066656 -1.736815,3.849435 -1.914461,5.28894 -0.178295,1.444752 0.0552,2.567672 0.584557,3.352164 0.530236,0.785793 1.361266,1.239204 2.389181,1.355923 1.026657,0.116576 2.250614,-0.103625 3.546227,-0.672022 0.870354,-0.381833 1.773718,-0.921206 2.66951,-1.621579 m -3.90417,-6.229097 c -1.085065,1.771566 -1.707655,3.2984 -1.967175,4.564212 -0.284988,1.390036 -0.132828,2.467753 0.327334,3.215558 0.460251,0.747949 1.228751,1.166384 2.178517,1.238852 0.949846,0.07247 2.08122,-0.200995 3.268589,-0.836693 2.374268,-1.271146 4.974218,-3.99189 6.792443,-8.291393 3.255409,-7.697971 4.962902,-14.351826 5.827173,-19.680444 1.372495,-8.462043 0.57098,-13.542601 0.567782,-13.563128 -7e-6,-4.1e-5 -10e-6,-6.3e-5 -10e-6,-6.3e-5 -1e-6,-10e-7 -3e-6,1.2e-5 -8e-6,3.9e-5 -9e-5,5.05e-4 -0.001,0.0059 -0.0029,0.01589 -0.0018,0.01003 -0.0045,0.02477 -0.008,0.04402 -0.0071,0.03849 -0.01761,0.09518 -0.03161,0.168654 -0.02798,0.146889 -0.06991,0.361597 -0.125805,0.633302 -0.111832,0.54366 -0.27978,1.316644 -0.505243,2.237792 -0.451997,1.846678 -1.131056,4.272026 -2.051409,6.657384 -0.919033,2.381936 -2.074382,4.711691 -3.466389,6.360902 -0.657302,0.778753 -1.368218,1.406579 -2.131649,1.813383 m 6.758996,-19.634292 c 1.32e-4,-8.33e-4 -0.0035,0.0224 -0.0034,0.02157 -0.006,0.03781 -0.015,0.09349 -0.02698,0.165712 -0.02396,0.144413 -0.05998,0.355464 -0.108478,0.62316 -0.09706,0.535806 -0.244025,1.298373 -0.445054,2.213291 -0.402254,1.830725 -1.019696,4.264337 -1.876176,6.684102 -0.855418,2.416768 -1.946447,4.810371 -3.281315,6.524734 -0.66747,0.857226 -1.395748,1.544349 -2.185824,1.979487 -0.790027,0.435111 -1.641677,0.618131 -2.55489,0.467271 -1.247559,-0.206094 -2.135483,-0.574188 -2.746584,-1.088321 -0.611064,-0.514103 -0.944946,-1.173957 -1.083736,-1.96317 -0.138798,-0.789259 -0.08246,-1.707565 0.08612,-2.738962 0.16858,-1.031362 0.449362,-2.175591 0.759348,-3.416941 0.620336,-2.484161 1.356253,-5.352301 1.547857,-8.49143 0.04825,-0.790479 0.06196,-1.597807 0.03074,-2.420527 -0.09271,-2.442897 -0.609565,-4.989452 -1.830386,-7.578472 C 60.412564,34.999231 58.405709,32.43808 56.206558,30.483878 54.004171,28.5268 51.594818,27.165104 49.130755,26.106852 45.171693,24.406537 41.06479,23.485688 37.406573,22.128937 M 59.940649,40.13649 c -1.518791,-2.644951 -3.238535,-4.722357 -5.098052,-6.402546 -2.183459,-1.972891 -4.543665,-3.383436 -6.95367,-4.515393 -4.816579,-2.262301 -9.810102,-3.401392 -13.892552,-5.66674 -0.681091,-0.377937 -1.441543,-0.494066 -2.214307,-0.418636 -0.77313,0.07547 -1.560402,0.342728 -2.300079,0.734792 -1.480196,0.784577 -2.771402,2.069207 -3.408003,3.336542 -0.317952,0.632973 -0.4732,1.263278 -0.403097,1.820049 0.06976,0.55402 0.362993,1.037628 0.950836,1.372459 0,0 0,0 0,0 0.0027,0.0016 0.0055,0.0031 0.0082,0.0046 0.594601,0.335769 1.482341,0.521829 2.73034,0.491407 0.569997,-0.01389 1.21381,-0.07293 1.936487,-0.182899 m -1.142968,-7.734618 c -1.155301,0.780046 -2.13854,1.814015 -2.70587,2.838613 -0.358575,0.647585 -0.550481,1.290702 -0.51404,1.86113 0.03644,0.570345 0.301223,1.067156 0.854025,1.419607 0.553027,0.352596 1.392597,0.559772 2.578097,0.555028 1.185006,-0.0047 2.714724,-0.221298 4.642514,-0.713312 7.394867,-1.887334 13.673941,1.276273 16.631864,6.908125 1.483966,2.825456 2.134184,6.276024 1.660559,10.011292 -0.47137,3.717491 -1.897057,7.785205 -4.494294,11.924542 -2.419778,3.856511 -6.852961,6.347538 -11.391111,7.609379 -0.898325,0.24978 -1.80241,0.451912 -2.698737,0.607447 M 51.58322,56.577176 c -0.264764,0.458034 -0.546745,0.916844 -0.84639,1.375962 -2.512367,3.849464 -7.242331,6.285812 -12.302706,7.493213 -5.054429,1.205982 -10.430183,1.179992 -14.063796,0.10748 -6.353932,-1.87545 -12.749799,-1.122074 -17.3080098,1.099881 -0.6947356,0.338657 -1.3354901,0.714033 -1.9178518,1.121515 -2.1973108,1.537472 -3.5766226,3.542659 -3.855037,5.760509 -0.2782865,2.216832 0.5375907,4.674216 2.853587,7.149628 3.2108067,3.431813 8.0051826,6.065392 13.4451056,7.815195 0.03973,0.01278 0.07949,0.02551 0.119282,0.03819 M 3.4051549,72.478137 c -0.082695,0.316525 -0.1443695,0.637858 -0.1840114,0.96335 -0.2725962,2.238242 0.4969034,4.682912 2.650844,7.097626 2.9789448,3.339599 7.3405965,5.768374 12.2275345,7.213026 4.884118,1.443819 10.286793,1.90258 15.317583,1.314442 2.56532,-0.299905 5.034842,-0.872237 7.29035,-1.726836 2.167747,-0.821347 4.132984,-1.910455 5.797243,-3.278728 1.697832,-1.395874 3.083204,-3.083025 4.04844,-5.072286 0.965129,-1.98904 1.510922,-4.281791 1.52592,-6.887281 m 89.944792,18.390716 c 1.07963,0.01973 2.0434,-0.401899 2.89749,-1.18056 0.85451,-0.779042 1.60146,-1.91739 2.24755,-3.338702 1.29342,-2.845348 2.18149,-6.821291 2.73135,-11.333951 0.54905,-4.505998 0.75946,-9.541583 0.69753,-14.420694 -0.0618,-4.870019 -0.39572,-9.60689 -0.94894,-13.444415 -0.0222,-0.153758 -0.0447,-0.307513 -0.0676,-0.461232 -0.37598,-2.524877 -0.88696,-4.977088 -1.64464,-7.249382 m 0.71699,18.888036 c -0.26452,-2.651578 -0.60695,-5.153133 -1.02181,-7.356585 -0.95626,-5.078932 -2.3386,-10.172546 -5.29333,-13.988726 -1.47813,-1.909079 -3.34795,-3.497475 -5.76042,-4.618974 -2.41355,-1.121999 -5.36533,-1.775425 -9.02839,-1.828357 -2.68316,-0.03877 -5.08186,0.519853 -7.19954,1.51857 -0.0791,0.03731 -0.15775,0.07529 -0.23593,0.113929 -2.16905,1.072114 -3.98544,2.656461 -5.44269,4.567516 -2.92111,3.830776 -4.40103,8.972713 -4.46996,14.051145 -0.0344,2.534608 0.28305,5.046216 0.94435,7.353349 0.66123,2.306883 1.66671,4.411379 3.01302,6.134937 0.54715,0.700464 1.15101,1.338604 1.81198,1.90283 m -2.19944,-25.8492 c -1.1976,2.89055 -1.89185,6.063899 -2.06985,9.178496 -0.14149,2.475684 0.0431,4.915864 0.5617,7.150649 0.51869,2.235135 1.37149,4.264761 2.56636,5.921091 1.19465,1.656028 2.73115,2.938318 4.61144,3.675206 1.87934,0.736517 4.10324,0.927998 6.66087,0.396124 3.29345,-0.684892 5.97281,-2.159503 8.07324,-4.157307 1.16222,-1.105435 2.15946,-2.358308 2.99775,-3.717033 2.35301,-3.813821 3.44772,-8.453694 3.40772,-12.928696 -0.0129,-1.437875 -0.14285,-2.859106 -0.38605,-4.231586 m -1.2691,15.497763 c 0.8405,-2.549666 1.22803,-5.319539 1.19598,-8.077541 -0.0528,-4.545247 -1.24535,-9.057356 -3.43156,-12.467218 -1.09353,-1.705587 -2.43383,-3.133105 -4.00482,-4.158617 -1.57133,-1.025733 -3.36918,-1.646712 -5.37965,-1.75001 -4.35858,-0.223946 -8.74393,0.08645 -13.23018,1.131449 -4.13798,0.963872 -8.28735,2.748137 -12.44548,5.493055 -0.234,0.154471 -0.46803,0.31199 -0.70211,0.472583 m 22.52182,-7.404642 c -5.95486,0.909353 -12.14249,3.202426 -18.78736,7.403254 -6.590953,4.166743 -13.549459,10.14483 -21.488219,18.619613 0,0 -2e-6,2e-6 -2e-6,2e-6 -2.853805,3.046494 -5.543238,6.246929 -8.121251,9.668466 M 89.488332,48.181021 C 84.832925,52.773883 80.23026,58.138229 75.352351,64.568624 67.189813,70.588115 62.190694,75.532278 59.461653,79.3293 c -0.493836,0.687094 -0.913937,1.337195 -1.265937,1.95016 0,0 0,10e-7 0,10e-7 -0.622421,1.083869 -1.020356,2.068986 -1.231776,2.933522 -0.331388,1.355103 -0.207578,2.420938 0.228051,3.161052 0.436359,0.741355 1.184429,1.157382 2.110876,1.233835 0.926957,0.0765 2.031885,-0.186363 3.190762,-0.79644 2.313264,-1.217789 4.853901,-3.82992 6.578296,-7.861049 0.97685,-2.283588 1.793889,-4.434477 2.476004,-6.481075 m -5.438594,15.958643 c 1.503103,-1.479256 2.938538,-3.531288 4.063877,-6.193954 8.490701,-20.089869 6.220224,-33.958365 6.215044,-33.992693 -7e-6,-4.3e-5 -1e-5,-6.6e-5 -1.1e-5,-6.7e-5 0,-2e-6 -2e-6,1.1e-5 -7e-6,3.6e-5 -8.9e-5,4.92e-4 -0.001,0.0057 -0.0028,0.01545 -0.0018,0.0098 -0.0045,0.02407 -0.008,0.04278 -0.007,0.03744 -0.01752,0.09246 -0.03145,0.163904 -0.02786,0.142911 -0.06946,0.351244 -0.124901,0.615442 -0.110923,0.528604 -0.276879,1.279182 -0.498257,2.174543 -0.0809,0.327216 -0.169178,0.673635 -0.264825,1.035452 -0.425946,1.611287 -1.00317,3.570607 -1.72342,5.507511 -0.882723,2.37383 -1.991045,4.744688 -3.332601,6.441466 -0.671427,0.849209 -1.401997,1.53073 -2.193686,1.961645 -0.791671,0.430905 -1.644074,0.610954 -2.557941,0.457671 -1.248424,-0.209399 -2.136055,-0.578276 -2.747244,-1.09301 -0.611009,-0.514584 -0.944716,-1.174308 -1.083366,-1.963025 -0.13866,-0.788771 -0.08215,-1.705863 0.08628,-2.735309 0.168463,-1.029652 0.448627,-2.170374 0.756981,-3.408108 0.6166,-2.475035 1.345047,-5.334151 1.51255,-8.460058 0.114318,-2.133388 -0.03249,-4.389057 -0.65247,-6.740624 -0.213368,-0.809307 -0.48319,-1.62488 -0.817988,-2.444854 m 0.0022,24.435411 c -0.168307,-0.09964 -0.321833,-0.206575 -0.461556,-0.320642 -0.630432,-0.514673 -0.980635,-1.175295 -1.136946,-1.964075 -0.156296,-0.788698 -0.118837,-1.706773 0.02936,-2.73533 0.148264,-1.029029 0.407322,-2.168516 0.694897,-3.40237 0.574472,-2.464802 1.264502,-5.311512 1.398655,-8.387218 0.134254,-3.078013 -0.287384,-6.393438 -1.938084,-9.805425 -1.650837,-3.412268 -3.637995,-5.947307 -5.829307,-7.897083 -2.097836,-1.866603 -4.380851,-3.194823 -6.72886,-4.237718 -0.103977,-0.04618 -0.208061,-0.09179 -0.312242,-0.136844 -4.913697,-2.124977 -10.04339,-3.017778 -14.276159,-4.990006 -0.706654,-0.32926 -1.490715,-0.396498 -2.291357,-0.266823 -0.800716,0.129687 -1.616787,0.456063 -2.388341,0.912042 -1.543174,0.911998 -2.904013,2.340427 -3.599589,3.73072 -0.347554,0.694679 -0.528687,1.379338 -0.482016,1.985385 0.04672,0.606727 0.321228,1.134873 0.887401,1.528383 0.566258,0.39357 1.42441,0.652847 2.639011,0.722716 1.216202,0.06996 2.783925,-0.04999 4.778207,-0.410986 2.836485,-0.513452 5.525805,-0.339827 7.956497,0.401082 m -6.99148,-6.049581 c -0.612291,-0.21087 -1.266613,-0.261458 -1.931809,-0.187358 -0.827685,0.0922 -1.672877,0.377595 -2.472723,0.788655 -1.600121,0.82234 -3.01976,2.147757 -3.761772,3.445902 -0.371141,0.649307 -0.572614,1.29142 -0.544122,1.860259 0.02847,0.568385 0.286896,1.062968 0.832127,1.410498 0.545089,0.347438 1.3767,0.547602 2.551765,0.526258 1.173706,-0.02132 2.695682,-0.264058 4.613441,-0.805219 7.371786,-2.080199 13.656784,0.794567 16.565365,6.044698 0.712588,1.286257 1.222026,2.714673 1.491704,4.243762 0.809085,4.587563 -0.159056,10.43555 -3.598854,16.754724 m 6.128662,-10.495906 c -0.133113,3.93495 -1.492017,8.329667 -4.42455,12.806104 -2.534835,3.869362 -7.229701,6.374398 -12.169994,7.661666 -4.944524,1.288372 -10.119638,1.350764 -13.591223,0.332335 -1.358309,-0.398476 -2.715681,-0.666924 -4.051897,-0.818764 -2.055826,-0.233611 -4.034501,-0.190765 -5.871232,0.08271 m 9.210303,1.20572 C 23.210842,68.686239 22.810326,68.580199 22.431366,68.461913 15.448427,66.282301 8.7755307,67.66253 4.9075865,70.767761 c -1.9325627,1.551484 -3.1651756,3.538943 -3.3549731,5.729893 -0.1898474,2.191527 0.6635741,4.591469 2.9223445,6.965807 2.5626447,2.69376 6.0480161,4.79047 9.9612881,6.226684 0.852784,0.312981 1.725364,0.59574 2.612871,0.847611 1.561104,0.443035 3.168603,0.790568 4.796386,1.038982 M 10.906361,86.561731 c 1.551404,0.751821 3.194361,1.388695 4.892886,1.906645 4.881306,1.488509 10.220058,1.994309 15.179223,1.429434 4.957841,-0.564724 9.541838,-2.199977 12.906456,-4.994312 1.682628,-1.397432 3.060394,-3.084864 4.027329,-5.073906 0.64391,-1.324562 1.105399,-2.782365 1.353842,-4.377014 0.124643,-0.800033 0.19728,-1.634538 0.214436,-2.504301 m 90.367707,17.715877 c 1.09812,0.03176 2.07761,-0.378391 2.94758,-1.142333 0.87026,-0.764196 1.63366,-1.885055 2.29472,-3.282878 1.32545,-2.802654 2.23385,-6.7026 2.79661,-11.111763 0.56163,-4.400253 0.77585,-9.285211 0.73144,-13.973712 -0.0442,-4.667162 -0.3457,-9.196924 -0.84695,-12.793662 -0.0202,-0.144712 -0.0406,-0.28936 -0.0615,-0.433912 0,0 0,-10e-7 0,-10e-7 -0.70839,-4.918359 -1.93067,-9.766841 -4.64107,-13.397087 -1.39459,-1.86788 -3.18045,-3.409128 -5.48645,-4.471765 -2.30575,-1.062518 -5.1273,-1.644022 -8.57522,-1.596694 -2.61736,0.03593 -4.91663,0.711546 -6.88196,1.855764 -1.96527,1.144191 -3.59589,2.756597 -4.87444,4.666087 -0.0729,0.108854 -0.14463,0.218674 -0.21523,0.329428 -1.169,1.833968 -2.09934,3.960735 -2.7807,6.23665 m 26.0085,-9.538647 c -0.6795,-0.44478 -1.41389,-0.841533 -2.20854,-1.184259 -2.3689,-1.0217 -5.27067,-1.562352 -8.85276,-1.467917 -2.72149,0.07175 -5.1325,0.777957 -7.22992,1.953818 -2.09699,1.175624 -3.87934,2.82014 -5.34217,4.765771 -2.92481,3.890145 -4.5749,8.98788 -4.89693,13.950757 -0.0993,1.529987 -0.0724,3.047565 0.0824,4.513509 0.0963,0.912259 0.24236,1.804142 0.43828,2.666067 0.51079,2.247106 1.36074,4.290364 2.55413,5.961233 1.19341,1.670891 2.72986,2.968606 4.61017,3.724353 1.87951,0.755425 4.10262,0.968751 6.65657,0.46823 2.55803,-0.50132 4.74027,-1.479441 6.56202,-2.80764 m -18.58457,-3.925356 c 0.34697,0.609598 0.72802,1.187661 1.14387,1.727784 1.2594,1.635725 2.83432,2.918626 4.74212,3.680962 1.90724,0.762116 4.13761,0.999388 6.68336,0.5596 5.08289,-0.87809 8.60249,-3.580083 10.73773,-7.141878 2.13566,-3.562505 2.86409,-7.951303 2.39412,-12.221598 -0.0976,-0.886922 -0.24681,-1.768334 -0.44548,-2.635764 -0.75682,-3.304527 -2.02701,-6.495031 -3.81902,-9.014987 -1.13233,-1.592297 -2.47182,-2.915892 -4.01993,-3.840634 -1.54706,-0.924117 -3.29821,-1.446596 -5.23406,-1.43731 -4.12388,0.01978 -8.18811,0.56838 -12.30823,1.892131 m 24.86115,4.524665 c -0.49452,-1.127531 -1.0725,-2.181824 -1.73117,-3.137979 -1.12754,-1.636807 -2.49167,-2.986118 -4.07738,-3.922451 -1.58571,-0.936334 -3.39319,-1.459805 -5.40355,-1.442636 -8.39246,0.07168 -16.73295,2.309331 -25.62277,8.105527 -1.01492,0.661729 -2.037162,1.369696 -3.068838,2.126406 -7.981879,5.854527 -16.424947,14.437526 -25.544835,26.706213 -2.201313,1.666673 -4.16627,3.258955 -5.91943,4.780507 M 86.557128,48.867845 c -4.213281,4.509497 -8.507158,9.880391 -12.71309,16.148825 -7.601144,6.226802 -11.856532,11.415538 -13.995793,15.425077 -0.531976,0.997065 -0.93315,1.92234 -1.219327,2.771797 -0.289955,0.860675 -0.476644,1.640239 -0.567495,2.342807 -0.180642,1.396933 0.02093,2.47258 0.520979,3.223905 0.498741,0.749363 1.293227,1.168561 2.264362,1.241301 0.971135,0.07274 2.117407,-0.201047 3.300985,-0.83851 2.368532,-1.275667 4.87975,-4.00382 6.41577,-8.328413 3.113999,-8.767321 4.091838,-16.890214 4.379985,-22.349934 0.153867,-2.915443 0.18235,-5.219701 0.144639,-7.051942 m -3.840475,29.77896 c 0.07396,-0.167424 0.146653,-0.337441 0.21801,-0.510063 8.237262,-19.927126 5.502434,-33.747658 5.495843,-33.781811 -8e-6,-4.3e-5 -1.3e-5,-6.5e-5 -1.6e-5,-6.6e-5 -10e-7,-10e-7 -4e-6,1.1e-5 -1e-5,3.7e-5 -1.12e-4,4.94e-4 -0.0013,0.0057 -0.0035,0.01553 -0.0022,0.0098 -0.0056,0.02421 -0.0099,0.04302 -0.0087,0.03758 -0.02171,0.09304 -0.03887,0.164815 -0.03429,0.143413 -0.08557,0.353492 -0.153358,0.618867 -0.135653,0.53109 -0.338137,1.286746 -0.606544,2.186622 -0.539021,1.807154 -1.336566,4.171192 -2.394097,6.503701 -0.114898,0.253421 -0.232757,0.506223 -0.35356,0.757639 0,0 0,0 0,0 -0.98459,2.049129 -2.117817,4.070407 -3.391206,5.55684 -0.717271,0.837274 -1.483698,1.511362 -2.305003,1.937133 -0.215257,0.11159 -0.434293,0.206132 -0.657242,0.282116 m 8.080532,-10.303253 c -0.292382,1.132844 -0.635578,2.313931 -1.034363,3.482928 -0.852894,2.500169 -1.949926,4.912716 -3.303484,6.627792 -0.675473,0.855882 -1.413891,1.536351 -2.213839,1.961512 -0.79981,0.425089 -1.66303,0.596022 -2.589176,0.428294 -1.265554,-0.229197 -2.170818,-0.620183 -2.795822,-1.15379 -0.625667,-0.534172 -0.973224,-1.213057 -1.128911,-2.025602 -0.15564,-0.812294 -0.119563,-1.758984 0.02347,-2.824385 0.142961,-1.064836 0.393207,-2.250658 0.666374,-3.536531 0.546649,-2.573242 1.186205,-5.552978 1.254868,-8.793155 0.06214,-2.932129 -0.343268,-6.0758 -1.710599,-9.333649 -0.143514,-0.341941 -0.297319,-0.684134 -0.461972,-1.026419 -1.730223,-3.596818 -3.754323,-6.194266 -5.953337,-8.152129 -2.198369,-1.95729 -4.579766,-3.280401 -7.002832,-4.273839 -4.849076,-1.988082 -9.882371,-2.664671 -14.028085,-4.457663 -0.692555,-0.299525 -1.461947,-0.338391 -2.248132,-0.179239 -0.760051,0.153861 -1.533039,0.492086 -2.266837,0.95337 m 19.514873,6.42174 C 49.26059,28.486978 48.661108,28.178208 48.0553,27.891022 43.262946,25.619186 38.066942,24.692223 33.68394,22.71745 c -0.731661,-0.329652 -1.54229,-0.396452 -2.374063,-0.265493 -0.831659,0.130942 -1.683492,0.45949 -2.494832,0.918339 -1.621902,0.917259 -3.080764,2.355327 -3.861007,3.752142 -0.390372,0.698855 -0.609812,1.385262 -0.598168,1.994566 0.01165,0.609701 0.254446,1.13938 0.778962,1.535933 0.523933,0.396112 1.328635,0.658926 2.462003,0.732075 1.133613,0.07316 2.597163,-0.04331 4.441546,-0.406536 2.361925,-0.46515 4.613076,-0.384736 6.670346,0.152686 4.130067,1.078899 7.624093,3.820546 9.830443,7.642264 3.302891,5.721086 3.662453,13.760245 -0.987076,21.849663 -1.444774,2.513669 -3.827908,4.410197 -6.599405,5.771928 -1.247218,0.6128 -2.590413,1.105105 -3.978909,1.482302 M 51.188815,51.467613 c -0.710854,2.216168 -1.790774,4.494805 -3.287536,6.783714 -2.525569,3.862204 -7.216941,6.32173 -12.164591,7.559537 -4.945219,1.237199 -10.141814,1.250868 -13.615415,0.212758 C 18.472989,64.933308 14.832543,64.793268 11.589766,65.349826 8.6067008,65.86181 6.0204192,66.96446 4.1018155,68.462 2.101207,70.023548 0.82239505,72.01863 0.59459302,74.218157 c -0.0208831,0.201635 -0.0329324,0.405019 -0.0358812,0.609971 M 20.326139,65.188757 c -5.071933,-0.370474 -9.681959,0.974825 -12.7279415,3.283305 -2.0403096,1.546305 -3.3761648,3.522667 -3.6846814,5.708105 -0.3085983,2.186018 0.4117387,4.573634 2.4571343,6.93863 2.8235596,3.26475 6.9473236,5.645605 11.4456446,7.028194 1.090317,0.335116 2.202738,0.611611 3.324441,0.82795 3.502512,0.675517 7.363361,0.847693 11.131174,0.454391 4.984534,-0.520308 9.780574,-2.025546 13.413909,-4.675108 1.815829,-1.324169 3.335449,-2.928951 4.455553,-4.830051 1.118781,-1.898856 1.838095,-4.092955 2.048942,-6.579319"
         id="path1" />
      <path
         style="fill:none;fill-opacity:0.156177;stroke:#860178;stroke-width:0.5;stroke-linecap:round;stroke-linejoin:round;stroke-dasharray:none;stroke-opacity:1"
         d="m 87.224143,49.252214 c -0.835658,1.079995 -1.358673,2.743941 -1.6636,4.637843 -0.305532,1.897661 -0.390906,4.014699 -0.362888,6.014075 0.05592,3.990593 0.568769,7.46032 0.571207,7.476893 6e-6,4e-5 9e-6,6e-5 1e-5,6e-5 10e-7,0 7e-6,-1.2e-5 1.7e-5,-3.6e-5 0.0066,-0.01545 2.104295,-4.888162 4.93411,-9.655925 1.415702,-2.38522 3.007617,-4.743379 4.579128,-6.469702 0.784678,-0.861978 1.563866,-1.565704 2.310818,-2.03142 0.747616,-0.466131 1.463552,-0.694907 2.134466,-0.608637 0.336139,0.04322 0.593659,0.19766 0.792819,0.445362 0.19892,0.247396 0.34014,0.588955 0.43793,1.004589 0.11108,0.472093 0.16656,1.041883 0.18499,1.680386 0.014,0.486199 0.003,1.012519 -0.0252,1.568167 -0.13382,2.600085 -0.67656,5.804603 -0.81038,8.404687 -0.0689,1.32239 -0.0323,2.508509 0.22563,3.414006 0.12898,0.452773 0.3132,0.83506 0.56661,1.129148 0.25335,0.294017 0.57563,0.499522 0.97917,0.598264 0.80634,0.197302 1.93891,-0.0323 3.47656,-0.83689 1.53901,-0.805296 3.47676,-2.182648 5.8934,-4.285617 M 89.485713,48.35393 c -0.855888,1.100818 -1.405118,2.786474 -1.741413,4.693406 -0.336823,1.909929 -0.459192,4.034332 -0.469806,6.028325 -0.0212,3.982919 0.404009,7.412198 0.406027,7.428595 5e-6,4e-5 7e-6,5.9e-5 7e-6,5.9e-5 1e-6,0 6e-6,-1.3e-5 1.5e-5,-3.8e-5 0.0062,-0.01562 1.977041,-4.947418 4.600001,-9.817631 1.310522,-2.433326 2.783532,-4.85619 4.239084,-6.628355 0.728405,-0.886848 1.453314,-1.611928 2.154168,-2.096529 0.70125,-0.484875 1.377334,-0.728377 2.011434,-0.656109 0.31712,0.03614 0.55894,0.184823 0.73934,0.425704 0.18037,0.240849 0.29953,0.574181 0.37052,0.980635 0.0806,0.461741 0.0992,1.018426 0.0746,1.643085 -0.0187,0.475364 -0.0631,0.991133 -0.12509,1.536498 -0.28688,2.524074 -0.9585,5.685807 -1.16721,8.329903 -0.0668,0.846114 -0.0854,1.638508 -0.0268,2.338195 M 99.362169,51.35995 c 0.01359,0.680897 -0.04753,1.47922 -0.149237,2.348435 -0.297844,2.545382 -0.941119,5.69874 -1.093424,8.309004 -0.07614,1.304898 -0.03025,2.475156 0.240535,3.366479 0.135381,0.445628 0.32712,0.821926 0.588258,1.109797 0.261155,0.287889 0.592005,0.487669 1.006233,0.579523 0.828536,0.183728 1.991496,-0.06417 3.602206,-0.902111 1.60854,-0.836811 3.6719,-2.266871 6.29487,-4.451075 M 87.575739,48.68985 c -0.831104,1.0988 -1.349442,2.781002 -1.651281,4.686494 -0.302339,1.908647 -0.386347,4.030673 -0.358603,6.025019 0.0554,3.98233 0.561398,7.414133 0.563807,7.43054 5e-6,4e-5 9e-6,5.9e-5 1e-5,5.9e-5 10e-7,0 7e-6,-1.3e-5 1.7e-5,-3.8e-5 0.0066,-0.01561 2.09417,-4.943712 4.907229,-9.807154 1.407417,-2.433256 2.989818,-4.845676 4.55399,-6.618138 0.781108,-0.885122 1.556676,-1.609285 2.301086,-2.092586 0.745241,-0.48384 1.458341,-0.726352 2.127646,-0.653366 0.33501,0.03653 0.59188,0.185552 0.79007,0.426802 0.19798,0.240982 0.33814,0.57522 0.43465,0.981938 0.10964,0.462049 0.16344,1.019918 0.18004,1.645032 0.0126,0.476019 4e-4,0.99164 -0.0302,1.536462 -0.1414,2.521058 -0.69859,5.659481 -0.85579,8.268118 -0.0786,1.304515 -0.0519,2.475583 0.19763,3.369502 0.0608,0.217916 0.13485,0.419258 0.22373,0.601966 M 98.864477,49.36367 c 0.128548,0.223776 0.215736,0.509206 0.269037,0.845856 0.128275,0.810191 0.06038,1.917188 -0.09757,3.184791 -0.315874,2.535021 -0.991518,5.720753 -1.179638,8.391731 -0.09408,1.335699 -0.06624,2.539893 0.189132,3.462354 0.127701,0.461288 0.312173,0.851771 0.566564,1.153933 0.254401,0.302176 0.578415,0.515672 0.98495,0.624163 0.813203,0.217019 1.954813,0.01359 3.526903,-0.73772 1.57048,-0.75054 3.57494,-2.050381 6.10258,-4.018237 M 88.247514,50.775999 c -0.844716,1.127876 -1.380253,2.835917 -1.701819,4.747329 -0.322057,1.914335 -0.428554,4.023672 -0.423766,5.983538 0.0096,3.916521 0.465381,7.210966 0.467548,7.226751 5e-6,3.8e-5 8e-6,5.6e-5 8e-6,5.4e-5 10e-7,-10e-7 6e-6,-1.4e-5 1.6e-5,-4e-5 0.0064,-0.01623 2.021435,-5.144692 4.715289,-10.340969 1.345947,-2.596249 2.861172,-5.207155 4.356741,-7.142866 0.748602,-0.968914 1.491652,-1.768037 2.209338,-2.316776 0.719135,-0.549847 1.406501,-0.843869 2.055223,-0.82157 0.323768,0.01113 0.571488,0.139328 0.758498,0.355776 0.18697,0.216399 0.31418,0.52214 0.39477,0.894167 0.0916,0.422955 0.12355,0.933715 0.11457,1.505403 -0.007,0.43519 -0.0388,0.909984 -0.0883,1.415613 -0.22908,2.340054 -0.84537,5.365703 -1.01739,7.958942 -0.086,1.296818 -0.0583,2.478387 0.19447,3.386649 0.12226,0.439245 0.29699,0.81403 0.5365,1.107859 m 0.35981,-11.712724 c -0.27625,2.560044 -0.84967,5.617401 -0.99343,8.149545 -0.0752,1.323902 -0.0322,2.506419 0.23481,3.406465 0.13352,0.450002 0.32315,0.829628 0.58214,1.120497 0.25897,0.290846 0.58751,0.49317 0.99882,0.587652 0.82208,0.188841 1.97776,-0.05294 3.56871,-0.885705 1.59143,-0.833011 3.61892,-2.257462 6.18914,-4.444615 M 88.82974,48.307055 c -0.818111,1.101439 -1.324414,2.794467 -1.621623,4.731519 -0.297255,1.937352 -0.384828,4.115444 -0.367438,6.175163 0.03475,4.115983 0.492267,7.743939 0.494458,7.761261 5e-6,4.1e-5 8e-6,6.3e-5 8e-6,6.5e-5 10e-7,10e-7 6e-6,-1e-5 1.6e-5,-3.3e-5 0.0064,-0.0147 2.023237,-4.657849 4.71755,-9.051779 1.349979,-2.201567 2.860193,-4.33369 4.367226,-5.861916 0.751081,-0.761642 1.500767,-1.372164 2.221764,-1.756473 0.72001,-0.383783 1.418839,-0.546291 2.068389,-0.394903 0.32627,0.07604 0.57544,0.25751 0.76512,0.537688 0.1895,0.279913 0.31936,0.65831 0.40388,1.12047 0.0959,0.524536 0.1333,1.156918 0.13125,1.868991 -0.002,0.542002 -0.0285,1.124952 -0.0736,1.735207 -0.20888,2.824022 -0.82529,6.189482 -1.01643,8.886821 -0.0956,1.349032 -0.0807,2.537475 0.16019,3.438619 0.12041,0.45039 0.2972,0.82855 0.54371,1.117505 0.24642,0.288848 0.56237,0.488304 0.95849,0.57847 0.51849,0.118021 1.17571,0.04864 1.99026,-0.258418 m -4.21684,-18.173393 c 0.0669,0.745902 0.0253,1.662257 -0.0754,2.676972 -0.25238,2.543647 -0.884245,5.704559 -1.059164,8.329011 -0.08747,1.312351 -0.05883,2.490048 0.195569,3.388978 0.127184,0.449406 0.310739,0.828893 0.563948,1.120237 0.253167,0.291293 0.575867,0.494304 0.980397,0.59014 0.80886,0.191628 1.94508,-0.04556 3.50083,-0.862515 1.55412,-0.816088 3.53178,-2.213767 6.01189,-4.343244"
         id="path4" />
      <path
         style="fill:none;fill-opacity:0.156177;stroke:#ff0000;stroke-width:0.5;stroke-dasharray:none;stroke-opacity:1"
         d="m 149.04678,52.547525 c 0.14441,-0.334418 0.45697,-0.784642 0.8909,-1.281932 0.43427,-0.497691 0.9892,-1.041537 1.61968,-1.565631 1.26197,-1.049035 2.81791,-2.011115 4.29748,-2.372322 0.73848,-0.180285 1.45746,-0.210489 2.10698,-0.02449 0.64971,0.186051 1.23162,0.588715 1.69752,1.279716 0.46615,0.691365 0.81694,1.672054 1.00647,3.020133 0.18961,1.34865 0.21791,3.064242 0.0403,5.234659 -0.19924,2.435227 -0.84267,4.325315 -1.73585,5.803224 -0.89236,1.476554 -2.03521,2.543238 -3.22871,3.325621 -2.37368,1.556037 -5.00019,2.014836 -6.23672,2.210437 m -0.0169,-15.125398 c 0.13688,-0.330399 0.43863,-0.775434 0.86064,-1.268948 0.42228,-0.493821 0.96466,-1.035864 1.58334,-1.561488 1.23719,-1.05112 2.77698,-2.033754 4.24508,-2.422261 0.73342,-0.194086 1.4479,-0.239408 2.09478,-0.06975 0.64703,0.169704 1.22614,0.554329 1.69058,1.220649 0.46459,0.66654 0.81394,1.613977 1.00458,2.91039 0.19064,1.296342 0.22244,2.940398 0.0537,5.000167 -0.18923,2.310409 -0.82086,4.08314 -1.70363,5.449218 -0.88217,1.365161 -2.01388,2.321701 -3.19833,2.994906 -2.36775,1.345748 -4.95227,1.562368 -6.19547,1.641347 m -0.34114,-11.448659 c 0.1522,-0.321067 0.47562,-0.75224 0.92152,-1.232716 0.44539,-0.479933 1.01434,-1.010442 1.65508,-1.526303 1.27961,-1.030214 2.86028,-2.014673 4.34158,-2.412662 0.74253,-0.199497 1.46215,-0.252581 2.11307,-0.09237 0.65088,0.160196 1.23196,0.533505 1.69682,1.18303 0.46461,0.649176 0.81249,1.573839 0.99452,2.830447 0.18197,1.256198 0.19806,2.844277 -0.002,4.812894 -0.22434,2.206051 -0.89478,3.883314 -1.81196,5.153664 -0.91795,1.271406 -2.08266,2.134987 -3.3005,2.716508 -2.4431,1.166594 -5.06859,1.186602 -6.35058,1.167839 m 0.54291,-14.753249 c 0.13572,-0.341706 0.43574,-0.803255 0.85487,-1.313978 0.41962,-0.511337 0.95772,-1.070956 1.57154,-1.612237 1.229,-1.083768 2.75029,-2.083329 4.20451,-2.478925 0.72551,-0.197361 1.43234,-0.243471 2.07114,-0.07304 0.63873,0.170417 1.20999,0.557464 1.66307,1.228607 0.45327,0.671416 0.78861,1.627348 0.9576,2.940204 0.16893,1.312451 0.1719,2.983839 -0.0402,5.08766 -0.238,2.361068 -0.91497,4.184308 -1.84085,5.597806 -0.92542,1.412781 -2.09922,2.415551 -3.32639,3.134202 -2.45032,1.434941 -5.12883,1.742996 -6.4198,1.866322 m -2.53512,-15.110528 c 0.14454,-0.324844 0.4575,-0.760995 0.89342,-1.243027 0.43616,-0.4823 0.9947,-1.00978 1.6308,-1.518623 1.27202,-1.017556 2.85068,-1.956939 4.3531,-2.303349 0.75035,-0.173006 1.4816,-0.197874 2.14389,-0.0077 0.66284,0.19036 1.25778,0.596097 1.74232,1.290024 0.48491,0.694453 0.85914,1.676717 1.08569,3.025025 0.22682,1.349893 0.30487,3.059768 0.20376,5.222595 -0.1134,2.425657 -0.67578,4.301983 -1.49204,5.769535 -0.81481,1.464972 -1.88275,2.521634 -2.99939,3.293889 -2.21918,1.534771 -4.68989,1.981698 -5.83454,2.170244"
         id="path5" />
      <path
         style="fill:none;fill-opacity:0.156177;stroke:#ff0000;stroke-width:0.5;stroke-linecap:round;stroke-dasharray:none;stroke-opacity:1"
         d="m 176.18379,41.895306 c 0.01,-0.01638 2.44835,-4.145344 3.77195,-8.208273 0.662,-2.032082 1.0503,-4.050906 0.74612,-5.552173 -0.152,-0.750187 -0.47725,-1.371855 -1.02925,-1.79751 -0.55213,-0.425761 -1.33187,-0.656037 -2.39564,-0.621532 -1.06491,0.03454 -2.06279,0.602896 -2.98272,1.5889 -0.91957,0.985627 -1.76099,2.38862 -2.50854,4.087217 -1.49322,3.392935 -2.61821,7.982986 -3.21171,12.747919 -0.23768,1.908204 -0.39015,3.845105 -0.44659,5.74559 -0.0846,2.848187 0.0574,5.579172 0.44913,7.993086 0.32645,2.011924 0.8264,3.803836 1.51324,5.257116 0.68695,1.453527 1.56098,2.568604 2.63616,3.227132 0.73633,0.450986 1.61821,0.435978 2.52273,0.16219 0.90505,-0.273952 1.83456,-0.807382 2.6714,-1.396755 1.67382,-1.178844 2.97674,-2.580607 2.98786,-2.592581 3e-5,-2.8e-5 5e-5,-4.8e-5 6e-5,-6e-5 m -3.64644,-17.546785 c 0.009,-0.01688 2.28896,-4.265823 3.59237,-8.40854 0.65178,-2.071601 1.05272,-4.125178 0.76572,-5.6512 -0.14358,-0.7634 -0.45923,-1.395191 -1.00041,-1.832577 -0.54094,-0.437188 -1.30728,-0.679921 -2.34885,-0.662977 -1.04256,0.01696 -2.01609,0.568108 -2.89991,1.530332 -0.88423,0.962681 -1.67777,2.335489 -2.36505,3.996958 -1.37635,3.327267 -2.31674,7.787848 -2.73066,12.387195 -0.1654,1.837871 -0.24645,3.695747 -0.23719,5.506216 0.0139,2.711632 0.20938,5.354581 0.62577,7.699249 0.34747,1.956633 0.84924,3.709179 1.53068,5.133571 0.68155,1.42461 1.54189,2.518678 2.60213,3.160113 0.72616,0.439316 1.59547,0.413687 2.48402,0.128097 0.8893,-0.285832 1.79739,-0.831388 2.61221,-1.432995 1.62926,-1.20293 2.88138,-2.628595 2.89207,-2.640781 2e-5,-2.8e-5 4e-5,-4.8e-5 5e-5,-6.1e-5 m -7.61232,-19.287239 c 0.01,-0.0162 2.49494,-4.104641 3.77444,-8.151586 0.63987,-2.023876 0.99099,-4.039017 0.65187,-5.538074 -0.1694,-0.748831 -0.5117,-1.370475 -1.08209,-1.795331 -0.57098,-0.425297 -1.37227,-0.655173 -2.46949,-0.620587 -1.09808,0.03461 -2.13189,0.602743 -3.1022,1.588091 -0.96944,0.984463 -1.87646,2.387322 -2.7076,4.083935 -1.65511,3.37863 -3.03714,7.987341 -3.93207,12.746713 -0.35917,1.910119 -0.6412,3.852361 -0.82997,5.758917 -0.28341,2.862467 -0.22828,5.580346 0.14566,7.9852 0.31099,1.999998 0.84193,3.776782 1.57576,5.210872 0.73355,1.433532 1.67327,2.532165 2.81526,3.169178 0.78371,0.437157 1.71381,0.408601 2.68508,0.116547 0.96971,-0.291587 1.9813,-0.846999 2.90393,-1.45891 2e-5,-9e-6 0.0212,-0.0141 0.0212,-0.01411 m -7.8799,-10.108277 c 0.0674,0.497018 0.14396,0.983962 0.22983,1.459033 0.35571,1.967877 0.87187,3.732089 1.56881,5.166944 0.69712,1.435223 1.57444,2.539569 2.65147,3.1909 0.73756,0.446043 1.61891,0.427391 2.5224,0.150442 0.90376,-0.277032 1.83039,-0.812551 2.66343,-1.403148 1.66606,-1.181193 2.95716,-2.58231 2.96818,-2.594285 3e-5,-2.7e-5 4e-5,-4.7e-5 5e-5,-6e-5 m -3.8426,-19.028303 c 0.009,-0.01613 2.26005,-4.088516 3.47659,-8.167213 0.60809,-2.038738 0.95585,-4.079919 0.6224,-5.599811 -0.16678,-0.760231 -0.50421,-1.391499 -1.0686,-1.828182 -0.56474,-0.43696 -1.35752,-0.679995 -2.43958,-0.665836 -1.08299,0.01417 -2.0987,0.560954 -3.04151,1.515651 -0.94264,0.954533 -1.81214,2.317482 -2.59612,3.963976 -1.56522,3.287249 -2.79913,7.7292 -3.58242,12.310602 -0.31368,1.83466 -0.55623,3.699856 -0.71578,5.523319 -0.23966,2.739175 -0.15795,5.37537 0.23214,7.722077 0.3245,1.952118 0.86172,3.697214 1.59882,5.10867 0.73685,1.410955 1.67635,2.494889 2.81759,3.120317 0.78333,0.429282 1.7126,0.393804 2.68124,0.09497 0.96777,-0.29856 1.97637,-0.86084 2.89564,-1.479021 1.83893,-1.236636 3.32578,-2.699613 3.33847,-2.712118 3e-5,-2.9e-5 5e-5,-5e-5 6e-5,-6.4e-5 m -6.19909,-19.082953 c 0.01,-0.01581 2.40564,-4.014184 3.75977,-8.06755 0.67728,-2.027334 1.09304,-4.061043 0.81483,-5.580765 -0.1391,-0.759837 -0.45151,-1.390171 -0.98979,-1.827479 -0.5382,-0.437251 -1.30139,-0.680847 -2.34019,-0.668479 -1.03977,0.01238 -2.01101,0.556738 -2.89279,1.507422 -0.8818,0.9507 -1.67424,2.307591 -2.35883,3.94721 -1.37034,3.281991 -2.30547,7.685847 -2.6759,12.271677 -0.14824,1.835183 -0.20603,3.697717 -0.16634,5.528894 0.0594,2.740256 0.28108,5.407583 0.71105,7.76842 0.35902,1.971229 0.86404,3.734622 1.54547,5.168497 0.68155,1.43413 1.53815,2.535152 2.59409,3.183594 0.72289,0.443918 1.5889,0.422631 2.47206,0.142295 0.88417,-0.280653 1.78547,-0.820327 2.5929,-1.415977 1.61452,-1.191055 2.84965,-2.604195 2.8602,-2.616272 2e-5,-2.7e-5 4e-5,-4.8e-5 5e-5,-6e-5"
         id="path6" />
      <path
         style="fill:#000000;fill-opacity:0.156177;stroke:#ff0000;stroke-width:0.5;stroke-linecap:round;stroke-dasharray:none;stroke-opacity:1"
         d="m 160.69534,47.490165 c 5.9392,-0.05292 12.02319,-0.04701 18.21149,0.01067 M 162.53529,46.52911 c 6.00376,-0.123714 12.02279,-0.12023 18.05052,-0.03079 m -19.51933,0.198938 c 5.96536,-0.01602 12.05361,-0.04248 18.24229,-0.07062 m -18.69953,1.371045 c 5.8406,-0.233001 11.83432,-0.247092 17.89628,-0.130947 m -15.61884,0.135275 c 5.89908,0.02097 11.88574,0.03964 17.90666,0.09111"
         id="path7" />
    </g>
    <g
       id="g1"
       style="display:none">
      <circle
         style="display:inline;fill:none;fill-opacity:0.156177;stroke:#dad9ff;stroke-width:1;stroke-dasharray:none;stroke-opacity:1"
         id="path8"
         cx="26.835144"
         cy="39.091"
         r="5" />
      <circle
         style="display:inline;fill:none;fill-opacity:0.156177;stroke:#dad9ff;stroke-width:1;stroke-dasharray:none;stroke-opacity:1"
         id="path8-8"
         cx="26.835144"
         cy="28.091002"
         r="5" />
      <circle
         style="display:inline;fill:none;fill-opacity:0.156177;stroke:#dad9ff;stroke-width:1;stroke-dasharray:none;stroke-opacity:1"
         id="path8-5"
         cx="26.835144"
         cy="17.091002"
         r="5" />
      <circle
         style="display:inline;fill:none;fill-opacity:0.156177;stroke:#dad9ff;stroke-width:1;stroke-dasharray:none;stroke-opacity:1"
         id="path8-1"
         cx="36.36507"
         cy="22.38113"
         r="5" />
      <circle
         style="display:inline;fill:none;fill-opacity:0.156177;stroke:#dad9ff;stroke-width:1;stroke-dasharray:none;stroke-opacity:1"
         id="path8-7"
         cx="17.405777"
         cy="22.28544"
         r="5" />
      <circle
         style="display:inline;fill:none;fill-opacity:0.156177;stroke:#dad9ff;stroke-width:1;stroke-dasharray:none;stroke-opacity:1"
         id="path8-2"
         cx="17.405777"
         cy="33.285439"
         r="5" />
    </g>
    <g
       id="g16">
      <path
         style="fill:#000000;fill-opacity:0.156177;stroke:#000000;stroke-width:1;stroke-linecap:round;stroke-dasharray:none;stroke-opacity:1"
         d="m 26.317935,63.117163 c 0.03385,-1.359189 0.08448,-2.646101 0.227865,-3.963814 0.143742,-1.321016 -0.137521,-2.745524 -0.465631,-4.222473 -0.328109,-1.476949 0.158828,-2.603072 0.422651,-3.800599 l 0,-10e-7 c 0.263823,-1.197526 0.05204,-2.767501 0.124994,-4.30919 0.04321,-0.913211 0.03711,-1.664944 0.02254,-2.384434 m 0.233701,18.736289 c -0.0039,-1.421737 -0.05322,-2.656582 -0.200759,-3.982092 -0.147909,-1.328833 0.034,-2.694968 0.06874,-4.08888 0.03475,-1.393912 0.06787,-2.821032 0.164838,-4.456847 l 10e-7,-10e-7 c 0.09697,-1.635815 0.01883,-2.576691 0.02656,-3.73966 0.0077,-1.16297 -0.08903,-2.667347 -0.313286,-3.99513 l 0,-10e-7 c -0.224256,-1.327782 0.141886,-2.643317 0.396869,-3.938878 0.254983,-1.295562 -0.02372,-2.62768 -0.118756,-3.877942 -0.0095,-0.125633 -0.01662,-0.253126 -0.02154,-0.382216"
         id="path2" />
      <path
         style="display:inline;fill:none;fill-opacity:0.156177;stroke:#000000;stroke-width:1;stroke-linecap:round;stroke-dasharray:none;stroke-opacity:1"
         d="M 24.704576,41.270865 C 23.34095,40.852839 22.29439,40.319068 21.459308,39.2244 c -0.0549,-0.07196 -0.108658,-0.146143 -0.161304,-0.222637 -0.70612,-1.025976 -0.654101,-2.159423 -0.495119,-3.84839 0,0 0,-1e-6 0,-1e-6 0.01843,-0.195801 0.04178,-0.399835 0.07066,-0.610654 -0.991285,0.706513 -1.976392,1.072297 -2.774381,1.217736 -1.241848,0.226335 -2.848259,-0.264224 -3.879617,-1.163068 -0.510569,-0.444969 -0.941839,-0.849483 -1.299695,-1.290834 -0.478714,-0.590404 -0.79987,-1.217458 -0.93846,-1.980904 -0.08945,-0.492751 -0.01526,-1.003876 0.22018,-1.509432 0.29984,-0.643838 0.85656,-1.267742 1.633286,-1.823718 0.77807,-0.556938 1.526941,-1.265592 2.494357,-1.901229 -0.278308,-0.109674 -0.542047,-0.221325 -0.784517,-0.330289 0,0 0,0 0,0 -1.516287,-0.681409 -2.352658,-1.74533 -2.782834,-2.79305 -0.116388,-0.28347 -0.219101,-0.548004 -0.309012,-0.811351 -0.366276,-1.07281 -0.462705,-1.997577 -0.216458,-2.87845 0.07972,-0.285178 0.213903,-0.569893 0.388828,-0.843316 0.50524,-0.789735 1.3525,-1.486894 2.199138,-1.823556 0.339353,-0.134942 0.727177,-0.239421 1.14827,-0.303942 0.850077,-0.13025 1.842175,-0.09644 2.803619,0.16994 0.70212,0.194532 1.368746,0.71353 2.04884,1.554718 -0.0057,-0.437762 0.02168,-0.819965 0.08371,-1.186574 0,-1e-6 0,-1e-6 0,-1e-6 0.261186,-1.54387 0.437527,-2.885029 1.038952,-4.033634 0.05386,-0.102867 0.113418,-0.198814 0.177785,-0.288269 0.799888,-1.111651 2.362118,-1.303727 3.830496,-1.183991 0.125381,0.01022 0.247171,0.02323 0.365583,0.039 1.402033,0.186722 2.307877,0.757874 3.211776,1.715153 0,0 0,0 0,0 0.0873,0.09245 0.170987,0.187449 0.250869,0.284994 0.762309,0.930854 1.179893,2.093235 1.074719,3.512341 -0.01997,0.269458 -0.04803,0.532682 -0.08645,0.789667 0.754516,-0.497949 2.023446,-1.086431 3.294412,-1.402829 0.889799,-0.221509 1.657302,-0.159208 2.330167,0.08506 0.434043,0.157569 0.826275,0.390148 1.182042,0.670442 0.318502,0.250935 0.651508,0.574464 0.955206,0.975497 0.433853,0.572903 0.855306,1.373212 0.968459,2.301958 0,0 0,0 0,0 0.04892,0.401554 0.100687,0.865128 0.143742,1.337969"
         id="path9" />
    </g>
  </g>
</svg>
