<?xml version="1.0" encoding="UTF-8" standalone="no"?>
<svg
   id="svg8"
   version="1.1"
   viewBox="0 0 124.22887 69.532181"
   height="69.532181mm"
   width="124.22887mm"
   xmlns="http://www.w3.org/2000/svg"
   xmlns:svg="http://www.w3.org/2000/svg"
   xmlns:rdf="http://www.w3.org/1999/02/22-rdf-syntax-ns#"
   xmlns:cc="http://creativecommons.org/ns#"
   xmlns:dc="http://purl.org/dc/elements/1.1/">
  <defs
     id="defs2" />
  <metadata
     id="metadata5">
    <rdf:RDF>
      <cc:Work
         rdf:about="">
        <dc:format>image/svg+xml</dc:format>
        <dc:type
           rdf:resource="http://purl.org/dc/dcmitype/StillImage" />
      </cc:Work>
    </rdf:RDF>
  </metadata>
  <g
     id="layer5"
     style="display:inline"
     transform="matrix(0.6494743,0,0,0.6494743,-12.923115,-58.185431)">
    <g
       id="g2294">
      <path
         style="font-variation-settings:normal;vector-effect:none;fill:none;fill-opacity:1;stroke:#a31f34;stroke-width:5.29166;stroke-linecap:round;stroke-linejoin:round;stroke-miterlimit:4;stroke-dasharray:none;stroke-dashoffset:0;stroke-opacity:1;paint-order:stroke fill markers;stop-color:#000000"
         d="m 52.301269,137.74205 v 25.45088"
         id="path1888-5" />
      <path
         style="font-variation-settings:normal;vector-effect:none;fill:none;fill-opacity:1;stroke:#8a8b8c;stroke-width:1.76388;stroke-linecap:round;stroke-linejoin:round;stroke-miterlimit:4;stroke-dasharray:none;stroke-dashoffset:0;stroke-opacity:1;paint-order:stroke fill markers;stop-color:#000000"
         id="path1941-6"
         d="M 77.238245,98.230071 A 55.997715,56.268982 0 0 1 107.9103,153.46382" />
      <path
         id="path1019-0"
         style="font-variation-settings:normal;display:inline;vector-effect:none;fill:none;fill-opacity:1;stroke:#a31f34;stroke-width:5.29166;stroke-linecap:round;stroke-linejoin:round;stroke-miterlimit:4;stroke-dasharray:none;stroke-dashoffset:0;stroke-opacity:1;paint-order:stroke fill markers;stop-color:#000000"
         d="m 73.100793,96.651177 c 0,0 -0.807969,-4.416849 -3.733054,-4.416849 -1.727385,0 -2.251302,1.120949 -3.28013,1.837526 -1.687751,1.175515 -4.69747,0.987492 -4.69747,4.005185 0,2.956461 4.112911,2.585021 5.848234,3.454481 15.835111,7.45166 26.271336,25.95342 26.271335,46.57488 m 4e-6,0.55739 c 1e-6,11.47937 -9.261005,20.78524 -20.546978,20.8601 l -20.83404,0.0749 c -3.381481,1e-5 -6.624464,-1.34979 -9.01553,-3.75244 -2.391066,-2.40265 -3.734354,-5.66134 -3.734352,-9.05922 2e-6,-1.45031 0.37992,-2.87506 1.101572,-4.13105" />
      <path
         id="path1151-8"
         style="font-variation-settings:normal;display:inline;vector-effect:none;fill:none;fill-opacity:1;stroke:#8a8b8c;stroke-width:1.76388;stroke-linecap:round;stroke-linejoin:round;stroke-miterlimit:4;stroke-dasharray:none;stroke-dashoffset:0;stroke-opacity:1;paint-order:stroke fill markers;stop-color:#000000"
         d="m 73.100792,187.86001 c 0,2.75422 0,5.25853 -0.686511,6.63546 -0.686511,1.37694 -2.258473,1.17722 -4.315474,1.17722 -2.057,0 -4.598928,0.19972 -5.969431,-1.86713 -1.370503,-2.06685 -1.370503,-5.9511 -1.370503,-10.08521 -10.560185,0 -19.792325,-7.15553 -22.474158,-17.41898" />
      <path
         id="path1170-9"
         style="font-variation-settings:normal;vector-effect:none;fill:none;fill-opacity:1;stroke:#8a8b8c;stroke-width:1.76388;stroke-linecap:round;stroke-linejoin:round;stroke-miterlimit:4;stroke-dasharray:none;stroke-dashoffset:0;stroke-opacity:1;paint-order:stroke fill markers;stop-color:#000000"
         d="m 97.72903,184.64255 c 1e-6,3.82631 2e-6,9.40036 -0.644171,10.43965 -0.644173,1.03929 -4.74254,1.03927 -5.606901,-1.04004 -0.864361,-2.07932 -0.86436,-9.33365 -0.864361,-15.03878 -5.324566,3.09073 -11.364526,4.71698 -17.512805,4.71698" />
      <path
         id="path1323-7"
         style="font-variation-settings:normal;vector-effect:none;fill:none;fill-opacity:1;stroke:#a31f34;stroke-width:5.29166;stroke-linecap:round;stroke-linejoin:round;stroke-miterlimit:4;stroke-dasharray:none;stroke-dashoffset:0;stroke-opacity:1;paint-order:stroke fill markers;stop-color:#000000"
         d="m 97.568205,175.02272 c 8.655725,8.69765 5.654365,14.2046 5.816185,18.92033 18.69947,0 6.16796,-23.71711 6.32953,-35.76834 0,3.44748 -1.11826,6.63309 -2.93354,8.35683 -1.81528,1.72374 -4.0518,1.72374 -5.86708,0 -1.815287,-1.72374 -2.933545,-4.90935 -2.933545,-8.35683" />
      <path
         id="path1354-1"
         style="font-variation-settings:normal;vector-effect:none;fill:none;fill-opacity:1;stroke:#a31f34;stroke-width:5.29166;stroke-linecap:round;stroke-linejoin:round;stroke-miterlimit:4;stroke-dasharray:none;stroke-dashoffset:0;stroke-opacity:1;paint-order:stroke fill markers;stop-color:#000000"
         d="m 117.82748,158.13522 v 9.84511 c 0,-3.60347 1.11826,-6.78908 2.93354,-8.51282 1.81528,-1.72374 4.0518,-1.72374 5.86708,0 1.81528,1.72375 2.93353,4.90935 2.93353,8.35683" />
      <path
         id="path1354-1-0"
         style="font-variation-settings:normal;display:inline;vector-effect:none;fill:none;fill-opacity:1;stroke:#1f28a3;stroke-width:5.29166;stroke-linecap:round;stroke-linejoin:round;stroke-miterlimit:4;stroke-dasharray:none;stroke-dashoffset:0;stroke-opacity:1;paint-order:stroke fill markers;stop-color:#000000"
         d="m 181.13125,158.13522 1.26046,35.80783 c 0,-3.60347 -5.24361,-27.18784 2.23081,-33.52652 6.95287,-5.8964 8.24288,4.84851 8.24288,7.40781" />
      <path
         style="display:inline;fill:none;stroke:#1f28a3;stroke-width:5.29166;stroke-linecap:round;stroke-linejoin:round;stroke-miterlimit:4;stroke-dasharray:none;stroke-opacity:1;paint-order:stroke fill markers;stop-color:#000000"
         id="path1586-9-4"
         d="m 175.61336,114.88036 a 27.046291,34.58815 0 0 1 -5.06157,46.86707 27.046291,34.58815 0 0 1 -36.89791,-3.43796 27.046291,34.58815 0 0 1 0.30389,-47.31037 27.046291,34.58815 0 0 1 36.93709,-2.66232" />
      <path
         style="font-variation-settings:normal;display:inline;vector-effect:none;fill:none;fill-opacity:1;stroke:#8a8b8c;stroke-width:1.76388;stroke-linecap:round;stroke-linejoin:round;stroke-miterlimit:4;stroke-dasharray:none;stroke-dashoffset:0;stroke-opacity:1;paint-order:stroke fill markers;stop-color:#000000"
         d="m 74.844449,195.6257 c 0.824571,0.0754 1.66897,0.047 2.444448,0.047 2.057001,0 3.628963,0.19973 4.315474,-1.17721 0.686511,-1.37693 0.686511,-5.53187 0.686511,-8.2861"
         id="path1151-3-1" />
      <path
         style="font-variation-settings:normal;vector-effect:none;fill:none;fill-opacity:1;stroke:#8a8b8c;stroke-width:1.76388;stroke-linecap:round;stroke-linejoin:miter;stroke-miterlimit:4;stroke-dasharray:none;stroke-dashoffset:0;stroke-opacity:1;paint-order:stroke fill markers;stop-color:#000000"
         d="m 47.510949,140.50185 c -3.819421,2.73944 -15.778938,6.52858 -20.941231,-7.0613 -8.094578,-6.23758 -7.201127,-15.61222 -0.421635,-22.03125 -0.392416,-6.92761 2.366868,-15.186819 15.178879,-15.393639 7.05738,-6.520274 11.655763,-6.342194 18.130328,-3.389424"
         id="path1414-5" />
      <path
         style="font-variation-settings:normal;display:inline;vector-effect:none;fill:none;fill-opacity:1;stroke:#8a8b8c;stroke-width:1.764;stroke-linecap:round;stroke-linejoin:miter;stroke-miterlimit:4;stroke-dasharray:none;stroke-dashoffset:0;stroke-opacity:1;paint-order:stroke fill markers;stop-color:#000000"
         d="m 57.139997,140.50185 c 3.81942,2.73944 15.778938,6.52858 20.94123,-7.0613 3.399934,-2.61994 5.214182,-5.79334 5.672609,-9.0687"
         id="path1414-4-4" />
      <path
         id="path1354-1-0-9"
         style="font-variation-settings:normal;display:inline;vector-effect:none;fill:none;fill-opacity:1;stroke:#1f28a3;stroke-width:5.29166;stroke-linecap:round;stroke-linejoin:round;stroke-miterlimit:4;stroke-dasharray:none;stroke-dashoffset:0;stroke-opacity:1;paint-order:stroke fill markers;stop-color:#000000"
         d="m 199.60922,132.58689 c -4.76842,51.72223 11.99148,39.49176 8.40937,9.15139 -0.3005,-2.54527 -17.19277,3.9417 -16.82597,-3.57358" />
    </g>
  </g>
</svg>
